<?xml version="1.0" encoding="utf-8"?>
<!-- Generator: Adobe Illustrator 16.0.0, SVG Export Plug-In . SVG Version: 6.00 Build 0)  -->
<!DOCTYPE svg PUBLIC "-//W3C//DTD SVG 1.1//EN" "http://www.w3.org/Graphics/SVG/1.1/DTD/svg11.dtd">
<svg version="1.1" id="Layer_1" xmlns="http://www.w3.org/2000/svg" xmlns:xlink="http://www.w3.org/1999/xlink" x="0px" y="0px"
	 width="210px" height="210px" viewBox="0 0 210 210" enable-background="new 0 0 210 210" xml:space="preserve">
<path fill-rule="evenodd" clip-rule="evenodd" fill="#7E7F81" d="M185.81,166.706c-7.041,5.207-14.966,8.954-22.621,13.048
	c-13.916,7.44-27.725,15.081-41.104,23.398c-11.769,7.315-22.564,7.147-34.356,0.044c-20.625-12.427-41.667-24.164-62.541-36.177
	c-9.458-5.443-14.246-13.327-14.12-24.51c0.26-23.158,0.786-46.349-0.144-69.472c-0.645-16.024,5.91-26.292,19.852-32.822
	c11.491-5.383,21.881-12.69,32.881-18.935c9.82-5.573,19.533-11.338,29.412-16.804c3.947-2.185,8.296-3.42,12.939-2.963
	c-0.155,1.626-0.311,3.253-0.466,4.88c-4.471-0.029-8.426,1.599-12.22,3.775c-22.19,12.728-44.313,25.577-66.619,38.1
	c-7.491,4.205-10.925,10.143-10.843,18.586c0.14,14.461-0.175,28.931,0.219,43.383c0.185,6.768-0.62,13.59,0.701,20.32
	c-0.868,1.221-1.373,2.525-0.937,4.048c0.059,3.491,0.262,6.988,0.146,10.474c-0.23,6.894,2.471,12.269,8.058,16.194
	c2.961,2.082,5.872,4.326,9.084,5.944c18.948,9.548,37.042,20.604,55.313,31.332c9.504,5.58,18.17,8.906,29.044,2.204
	c22.155-13.657,44.931-26.308,67.45-39.374C183.993,163.358,185.855,164.875,185.81,166.706z"/>
<path fill-rule="evenodd" clip-rule="evenodd" fill="#121111" d="M185.81,166.706c0.046-1.83-1.816-3.348-0.869-5.325
	c3.079-2.074,5.878-4.382,6.813-8.232c0.844-0.826,1.04-1.859,0.953-2.983c1.679-7.829,0.085-15.778,0.83-23.618
	c0.796-8.376-0.056-15.896-7.89-20.906c0.051-0.824,0.102-1.647,0.151-2.471c2.313,1.469,4.262,3.345,6.028,5.421
	c0.234,0.482,0.529,0.573,0.906,0.142c0.92-1.332,0.755-2.852,0.755-4.344c0-12.665-0.041-25.328,0.021-37.991
	c0.037-7.712-3.221-13.311-9.97-17.133c-15.068-8.529-29.949-17.39-45.09-25.786c-10.805-5.991-20.688-13.805-32.905-17.085
	c0.155-1.626,0.311-3.253,0.466-4.88c4.305-0.23,8.181,1.136,11.845,3.228c22.791,13.013,45.607,25.984,68.348,39.088
	c8.635,4.976,12.909,12.657,12.911,22.644c0.007,25.781,0.02,51.563-0.032,77.344C199.06,153.952,194.806,161.726,185.81,166.706z"
	/>
<path fill-rule="evenodd" clip-rule="evenodd" fill="#F44336" d="M185.646,105.64c7.834,5.011,8.686,12.53,7.89,20.906
	c-0.745,7.84,0.849,15.789-0.83,23.618c-2.085,0.43-2.487,1.398-0.953,2.983c-0.935,3.851-3.733,6.158-6.813,8.232
	c-22.52,13.066-45.295,25.717-67.45,39.374c-10.874,6.702-19.541,3.376-29.044-2.204c-18.271-10.729-36.365-21.784-55.313-31.332
	c-3.212-1.618-6.124-3.862-9.084-5.944c-5.587-3.926-8.289-9.301-8.058-16.194c0.116-3.485-0.087-6.982-0.146-10.474
	c1.26-0.117,2.07-0.97,2.923-1.768c15.047-14.076,30.104-28.143,45.142-42.228c3.764-3.526,6.13-3.503,9.448,0.401
	c5.379,6.331,10.684,12.726,16.011,19.103c1.264,1.513,2.38,2.926,2.503,5.196c0.157,2.889,2.378,4.389,5.214,4.164
	c2.624-0.208,4.283-1.89,4.263-4.626c-0.014-1.906,0.383-3.466,1.498-5.081c9.44-13.678,18.754-27.441,28.167-41.138
	c4.171-6.068,5.281-6.09,10.72-1.319C156.34,80.123,171.005,92.869,185.646,105.64z"/>
<path fill-rule="evenodd" clip-rule="evenodd" fill="#F44336" d="M191.826,108.59c-1.767-2.076-3.715-3.952-6.028-5.421
	c-0.789-2.121-2.59-3.359-4.188-4.766c-12.977-11.425-25.956-22.847-38.949-34.253c-1.505-1.32-2.931-2.432-2.759-4.893
	c0.228-3.275-1.921-5.007-5.003-4.801c-3.418,0.229-5.145,2.57-4.367,5.872c0.483,2.051,0.072,3.485-1.003,5.053
	c-9.491,13.856-18.95,27.734-28.445,41.587c-2.836,4.14-6.759,4.301-10.042,0.42c-5.159-6.099-10.259-12.246-15.417-18.345
	c-1.32-1.561-2.21-2.995-1.908-5.336c0.41-3.173-1.715-5.111-4.77-5.141c-2.754-0.025-5.087,1.721-4.804,4.603
	c0.284,2.888-1.247,4.23-2.945,5.817c-14.813,13.849-29.614,27.712-44.418,41.572c-1.321-6.73-0.516-13.553-0.701-20.32
	C15.686,95.785,16,81.315,15.861,66.854c-0.082-8.443,3.353-14.381,10.843-18.586c22.306-12.523,44.428-25.372,66.619-38.1
	c3.794-2.176,7.749-3.804,12.22-3.775c12.218,3.28,22.101,11.094,32.905,17.085c15.141,8.396,30.021,17.257,45.09,25.786
	c6.749,3.822,10.007,9.421,9.97,17.133c-0.062,12.664-0.021,25.327-0.021,37.991c0,1.493,0.165,3.012-0.755,4.344
	C192.404,108.853,192.103,108.806,191.826,108.59z"/>
<path fill-rule="evenodd" clip-rule="evenodd" fill="#242320" d="M16.781,130.558c14.804-13.859,29.604-27.723,44.418-41.572
	c1.698-1.587,3.229-2.929,2.945-5.817c-0.283-2.882,2.05-4.628,4.804-4.603c3.054,0.029,5.18,1.967,4.77,5.141
	c-0.302,2.342,0.588,3.775,1.908,5.336c5.157,6.099,10.257,12.247,15.417,18.345c3.283,3.881,7.205,3.72,10.042-0.42
	c9.495-13.854,18.954-27.731,28.445-41.587c1.075-1.568,1.486-3.002,1.003-5.053c-0.777-3.302,0.949-5.643,4.367-5.872
	c3.082-0.206,5.23,1.526,5.003,4.801c-0.172,2.461,1.254,3.573,2.759,4.893c12.993,11.407,25.973,22.828,38.949,34.253
	c1.599,1.407,3.399,2.645,4.188,4.766c-0.05,0.824-0.101,1.647-0.151,2.471c-14.642-12.771-29.307-25.517-43.914-38.329
	c-5.438-4.771-6.549-4.75-10.72,1.319c-9.412,13.697-18.727,27.459-28.167,41.138c-1.115,1.615-1.512,3.175-1.498,5.081
	c0.02,2.736-1.639,4.418-4.263,4.626c-2.836,0.225-5.057-1.275-5.214-4.164c-0.124-2.271-1.24-3.684-2.503-5.196
	c-5.327-6.377-10.631-12.772-16.011-19.103c-3.317-3.905-5.684-3.927-9.448-0.401c-15.038,14.085-30.095,28.152-45.142,42.228
	c-0.853,0.798-1.663,1.65-2.923,1.768C15.408,133.083,15.913,131.779,16.781,130.558z"/>
<path fill-rule="evenodd" clip-rule="evenodd" fill="#FBFBFB" d="M191.753,153.148c-1.534-1.585-1.132-2.554,0.953-2.983
	C192.793,151.289,192.597,152.322,191.753,153.148z"/>
<path fill-rule="evenodd" clip-rule="evenodd" fill="#242320" d="M191.826,108.59c0.276,0.216,0.578,0.263,0.906,0.142
	C192.355,109.164,192.061,109.073,191.826,108.59z"/>
</svg>
