<?xml version="1.0" encoding="utf-8"?>
<!-- Generator: Adobe Illustrator 16.0.0, SVG Export Plug-In . SVG Version: 6.00 Build 0)  -->
<!DOCTYPE svg PUBLIC "-//W3C//DTD SVG 1.1//EN" "http://www.w3.org/Graphics/SVG/1.1/DTD/svg11.dtd">
<svg version="1.1" id="Layer_1" xmlns="http://www.w3.org/2000/svg" xmlns:xlink="http://www.w3.org/1999/xlink" x="0px" y="0px"
	 width="250px" height="250px" viewBox="0 0 250 250" enable-background="new 0 0 250 250" xml:space="preserve">
<g>
	<path fill-rule="evenodd" clip-rule="evenodd" fill="#7E7F81" d="M205.81,186.706c-7.041,5.207-14.966,8.954-22.621,13.048
		c-13.916,7.44-27.725,15.081-41.104,23.398c-11.769,7.315-22.564,7.147-34.356,0.044c-20.625-12.427-41.667-24.164-62.541-36.177
		c-9.458-5.443-14.246-13.327-14.12-24.51c0.26-23.158,0.786-46.349-0.144-69.472c-0.645-16.024,5.91-26.292,19.852-32.822
		c11.491-5.383,21.881-12.69,32.881-18.935c9.82-5.573,19.533-11.338,29.412-16.804c3.947-2.185,8.296-3.42,12.939-2.963
		c-0.155,1.626-0.311,3.253-0.466,4.88c-4.471-0.029-8.426,1.599-12.22,3.775c-22.19,12.728-44.313,25.577-66.619,38.1
		c-7.491,4.205-10.925,10.143-10.843,18.586c0.14,14.461-0.175,28.931,0.219,43.383c0.185,6.768-0.62,13.59,0.701,20.32
		c-0.868,1.221-1.373,2.525-0.937,4.048c0.059,3.491,0.262,6.988,0.146,10.474c-0.23,6.894,2.471,12.269,8.058,16.194
		c2.961,2.082,5.872,4.326,9.084,5.944c18.948,9.548,37.042,20.604,55.313,31.332c9.504,5.58,18.17,8.906,29.044,2.204
		c22.155-13.657,44.931-26.308,67.45-39.374C203.993,183.358,205.855,184.875,205.81,186.706z"/>
	<path fill-rule="evenodd" clip-rule="evenodd" fill="#121111" d="M205.81,186.706c0.046-1.83-1.816-3.348-0.869-5.325
		c3.079-2.074,5.878-4.382,6.813-8.232c0.844-0.826,1.04-1.859,0.953-2.983c1.679-7.829,0.085-15.778,0.83-23.618
		c0.796-8.376-0.056-15.896-7.89-20.906c0.051-0.824,0.102-1.647,0.151-2.471c2.313,1.469,4.262,3.345,6.028,5.421
		c0.234,0.482,0.529,0.573,0.906,0.142c0.92-1.332,0.755-2.852,0.755-4.344c0-12.665-0.041-25.328,0.021-37.991
		c0.037-7.712-3.221-13.311-9.97-17.133c-15.068-8.529-29.949-17.39-45.09-25.786c-10.805-5.991-20.688-13.805-32.905-17.085
		c0.155-1.626,0.311-3.253,0.466-4.88c4.305-0.23,8.181,1.136,11.845,3.228c22.791,13.013,45.607,25.984,68.348,39.088
		c8.635,4.976,12.909,12.657,12.911,22.644c0.007,25.781,0.02,51.563-0.032,77.344C219.06,173.952,214.806,181.726,205.81,186.706z"
		/>
	<path fill-rule="evenodd" clip-rule="evenodd" fill="#242320" d="M36.781,150.558c14.804-13.859,29.604-27.723,44.418-41.572
		c1.698-1.587,3.229-2.929,2.945-5.817c-0.283-2.882,2.05-4.628,4.804-4.603c3.054,0.029,5.18,1.967,4.77,5.141
		c-0.302,2.342,0.588,3.775,1.908,5.336c5.157,6.099,10.257,12.247,15.417,18.345c3.283,3.881,7.205,3.72,10.042-0.42
		c9.495-13.854,18.954-27.731,28.445-41.587c1.075-1.568,1.486-3.002,1.003-5.053c-0.777-3.302,0.949-5.643,4.367-5.872
		c3.082-0.206,5.23,1.526,5.003,4.801c-0.172,2.461,1.254,3.573,2.759,4.893c12.993,11.407,25.973,22.828,38.949,34.253
		c1.599,1.407,3.399,2.645,4.188,4.766c-0.05,0.824-0.101,1.647-0.151,2.471c-14.642-12.771-29.307-25.517-43.914-38.329
		c-5.438-4.771-6.549-4.75-10.72,1.319c-9.412,13.697-18.727,27.459-28.167,41.138c-1.115,1.615-1.512,3.175-1.498,5.081
		c0.02,2.736-1.639,4.418-4.263,4.626c-2.836,0.225-5.057-1.275-5.214-4.164c-0.124-2.271-1.24-3.684-2.503-5.196
		c-5.327-6.377-10.631-12.772-16.011-19.103c-3.317-3.905-5.684-3.927-9.448-0.401c-15.038,14.085-30.095,28.152-45.142,42.228
		c-0.853,0.798-1.663,1.65-2.923,1.768C35.408,153.083,35.913,151.779,36.781,150.558z"/>
	<path fill-rule="evenodd" clip-rule="evenodd" fill="#FBFBFB" d="M211.753,173.148c-1.534-1.585-1.132-2.554,0.953-2.983
		C212.793,171.289,212.597,172.322,211.753,173.148z"/>
	<path fill-rule="evenodd" clip-rule="evenodd" fill="#242320" d="M211.826,128.59c0.276,0.216,0.578,0.263,0.906,0.142
		C212.355,129.164,212.061,129.073,211.826,128.59z"/>
</g>
</svg>
